HIERARCHY
ROOT joint_Root
{
	OFFSET 0.0 0.0 0.0
	CHANNELS 6 Xposition Yposition Zposition Zrotation Xrotation Yrotation 
	JOINT Hips
	{
		OFFSET -17.1583 93.1646 452.98
		CHANNELS 6 Xposition Yposition Zposition Zrotation Xrotation Yrotation 
		JOINT Spine
		{
			OFFSET 15.7357 0.0 0.0
			CHANNELS 6 Xposition Yposition Zposition Zrotation Xrotation Yrotation 
			JOINT Chest
			{
				OFFSET 8.98455 -0.406207 0.0
				CHANNELS 6 Xposition Yposition Zposition Zrotation Xrotation Yrotation 
				JOINT Neck
				{
					OFFSET 16.3773 0.0 0.0
					CHANNELS 6 Xposition Yposition Zposition Zrotation Xrotation Yrotation 
					JOINT Head
					{
						OFFSET 6.45672 0.0 0.0
						CHANNELS 6 Xposition Yposition Zposition Zrotation Xrotation Yrotation 
						End Site
						{
							OFFSET 0.0 0.0 0.0
						}
					}
				}
				JOINT Shoulder_L
				{
					OFFSET 12.9942 -0.242716 4.98039
					CHANNELS 6 Xposition Yposition Zposition Zrotation Xrotation Yrotation 
					JOINT UpperArm_L
					{
						OFFSET 5.34809 0.0 0.0
						CHANNELS 6 Xposition Yposition Zposition Zrotation Xrotation Yrotation 
						JOINT LowerArm_L
						{
							OFFSET 24.3286 1.87007e-05 0.0
							CHANNELS 6 Xposition Yposition Zposition Zrotation Xrotation Yrotation 
							JOINT Hand_L
							{
								OFFSET 22.2916 0.0 0.0
								CHANNELS 6 Xposition Yposition Zposition Zrotation Xrotation Yrotation 
								End Site
								{
									OFFSET 0.0 0.0 0.0
								}
							}
						}
					}
				}
				JOINT Shoulder_R
				{
					OFFSET 12.9945 -0.242716 -4.98039
					CHANNELS 6 Xposition Yposition Zposition Zrotation Xrotation Yrotation 
					JOINT UpperArm_R
					{
						OFFSET -5.34813 0.0 0.0
						CHANNELS 6 Xposition Yposition Zposition Zrotation Xrotation Yrotation 
						JOINT LowerArm_R
						{
							OFFSET -24.3289 0.000322201 0.0
							CHANNELS 6 Xposition Yposition Zposition Zrotation Xrotation Yrotation 
							JOINT Hand_R
							{
								OFFSET -22.2915 -0.000108084 0.0
								CHANNELS 6 Xposition Yposition Zposition Zrotation Xrotation Yrotation 
								End Site
								{
									OFFSET 0.0 0.0 0.0
								}
							}
						}
					}
				}
			}
		}
		JOINT UpperLeg_L
		{
			OFFSET -2.19248 -6.46944 0.0
			CHANNELS 6 Xposition Yposition Zposition Zrotation Xrotation Yrotation 
			JOINT LowerLeg_L
			{
				OFFSET 39.0811 0.0 -1.23785e-05
				CHANNELS 6 Xposition Yposition Zposition Zrotation Xrotation Yrotation 
				JOINT Foot_L
				{
					OFFSET 40.9854 0.0 -1.26872e-05
					CHANNELS 6 Xposition Yposition Zposition Zrotation Xrotation Yrotation 
					JOINT Toes_L
					{
						OFFSET 11.7543 0.0 0.0
						CHANNELS 6 Xposition Yposition Zposition Zrotation Xrotation Yrotation 
						End Site
						{
							OFFSET 0.0 0.0 0.0
						}
					}
				}
			}
		}
		JOINT UpperLeg_R
		{
			OFFSET -2.19251 6.46944 0.0
			CHANNELS 6 Xposition Yposition Zposition Zrotation Xrotation Yrotation 
			JOINT LowerLeg_R
			{
				OFFSET -39.0811 -0.00228153 -0.0401928
				CHANNELS 6 Xposition Yposition Zposition Zrotation Xrotation Yrotation 
				JOINT Foot_R
				{
					OFFSET -40.9854 0.0 0.0
					CHANNELS 6 Xposition Yposition Zposition Zrotation Xrotation Yrotation 
					JOINT Toes_R
					{
						OFFSET -11.7543 0.0 0.0
						CHANNELS 6 Xposition Yposition Zposition Zrotation Xrotation Yrotation 
						End Site
						{
							OFFSET 0.0 0.0 0.0
						}
					}
				}
			}
		}
	}
}
MOTION
Frames:	5
Frame Time:	0.0333333
0.000000 0.000000 0.000000 0.000000 0.000000 -0.000000 1.093820 92.900900 0.468334 87.923300 -1.656630 3.607550 15.735700 0.000005 -0.000001 102.203000 86.505000 -101.734000 8.984550 -0.406207 -0.000000 -0.939614 1.441600 0.948529 16.377300 -0.000001 -0.000001 2.935580 2.786590 0.810483 6.456720 -0.000001 -0.000000 2.846080 3.070430 4.269700 12.994200 -0.242716 4.980390 -92.109500 6.476430 -71.915100 5.348090 -0.000007 -0.000001 -70.416400 18.063200 -5.628330 24.328600 0.000019 0.000005 7.330040 22.160600 -18.830500 22.291600 -0.000001 0.000005 -1.511910 5.001740 7.282400 12.994500 -0.242716 -4.980390 89.016100 3.781930 -75.406500 -5.348130 -0.000001 -0.000004 -73.492100 27.979100 -3.200430 -24.328900 0.000322 -0.000009 0.594719 2.318170 -14.417200 -22.291500 -0.000108 -0.000004 1.953040 5.250410 1.421830 -2.192480 -6.469440 -0.000000 -174.314000 -6.073510 1.141160 39.081100 -0.000007 -0.000012 0.046017 -0.143482 17.781900 40.985400 -0.000006 -0.000013 0.243378 10.579700 -69.705800 11.754300 -0.000000 0.000003 -0.001471 0.189521 -8.888380 -2.192510 6.469440 -0.000001 175.692000 5.969250 -176.830000 -39.081100 -0.002282 -0.040193 0.005909 -0.011376 12.754900 -40.985400 0.000008 0.000006 -7.347040 8.617880 -66.938900 -11.754300 -0.000006 -0.000006 -0.011433 0.281722 -5.124720
0.000000 0.000000 0.000000 0.000000 0.000000 -0.000000 1.038080 92.904100 0.505945 87.969700 -1.553910 3.451320 15.735700 0.000005 -0.000001 101.835000 86.512300 -101.233000 8.984550 -0.406207 -0.000000 -0.945802 1.384600 1.215180 16.377300 -0.000001 -0.000001 2.724830 2.779200 1.289850 6.456720 -0.000001 -0.000000 2.454900 3.298250 4.701900 12.994200 -0.242716 4.980390 -92.136700 6.517010 -71.802900 5.348090 -0.000007 -0.000001 -70.309300 13.600800 -6.243060 24.328600 0.000019 0.000005 6.155750 21.427300 -16.447800 22.291600 -0.000001 0.000005 -2.023760 5.047730 6.286760 12.994500 -0.242716 -4.980390 89.005600 3.802770 -75.334400 -5.348130 -0.000001 -0.000004 -73.021200 27.556400 -3.609220 -24.328900 0.000322 -0.000009 0.552086 2.171420 -14.294900 -22.291500 -0.000108 -0.000004 2.192480 5.251300 1.398390 -2.192480 -6.469440 -0.000000 -174.309000 -6.195740 1.050900 39.081100 -0.000007 -0.000012 0.044587 -0.139865 17.681800 40.985400 -0.000006 -0.000013 0.230600 10.796200 -69.735300 11.754300 -0.000000 0.000003 -0.001516 0.190116 -8.864160 -2.192510 6.469440 -0.000001 175.742000 5.859280 -176.972000 -39.081100 -0.002282 -0.040193 0.007499 -0.018333 12.798700 -40.985400 0.000008 0.000006 -7.256250 8.335780 -67.067900 -11.754300 -0.000006 -0.000006 -0.011450 0.281841 -5.119830
0.000000 0.000000 0.000000 0.000000 0.000000 -0.000000 0.977710 92.917600 0.545770 88.040800 -1.434540 3.191370 15.735700 0.000005 -0.000001 101.772000 86.579500 -101.009000 8.984550 -0.406207 -0.000000 -1.077330 1.336500 1.537720 16.377300 -0.000001 -0.000001 2.592660 2.794320 1.789300 6.456720 -0.000001 -0.000000 2.050310 3.495420 5.345080 12.994200 -0.242716 4.980390 -92.169000 6.544100 -71.617600 5.348090 -0.000007 -0.000001 -70.112300 6.880360 -7.726610 24.328600 0.000019 0.000005 4.010560 20.128800 -11.515300 22.291600 -0.000001 0.000005 -3.468540 5.106950 4.953960 12.994500 -0.242716 -4.980390 88.997000 3.800520 -75.204100 -5.348130 -0.000001 -0.000004 -72.580300 26.958500 -4.033860 -24.328900 0.000322 -0.000009 0.458972 1.864890 -13.859300 -22.291500 -0.000108 -0.000004 2.487210 5.257160 1.242760 -2.192480 -6.469440 -0.000000 -174.320000 -6.410360 0.928198 39.081100 -0.000007 -0.000012 0.042022 -0.133784 17.437600 40.985400 -0.000006 -0.000013 0.211037 11.087000 -69.643400 11.754300 -0.000000 0.000003 -0.001230 0.186255 -9.021140 -2.192510 6.469440 -0.000001 175.778000 5.728050 -177.145000 -39.081100 -0.002282 -0.040193 0.009266 -0.026293 12.712600 -40.985400 0.000008 0.000006 -7.095440 8.089360 -67.175100 -11.754300 -0.000006 -0.000006 -0.011466 0.281950 -5.115390
0.000000 0.000000 0.000000 0.000000 0.000000 -0.000000 0.888217 92.923600 0.608337 88.098100 -1.336620 2.929240 15.735700 0.000005 -0.000001 101.558000 86.677100 -100.618000 8.984550 -0.406207 -0.000000 -1.264670 1.257200 1.893380 16.377300 -0.000001 -0.000001 2.307800 2.791700 2.455360 6.456720 -0.000001 -0.000000 1.898990 3.873570 6.133960 12.994200 -0.242716 4.980390 -92.150600 6.399370 -71.380600 5.348090 -0.000007 -0.000001 -69.478800 -0.745718 -9.283360 24.328600 0.000019 0.000005 2.401010 20.032800 -6.978410 22.291600 -0.000001 0.000005 -5.652170 5.083070 5.499610 12.994500 -0.242716 -4.980390 89.001100 3.765570 -75.131900 -5.348130 -0.000001 -0.000004 -72.238000 26.135200 -4.377830 -24.328900 0.000322 -0.000009 0.357583 1.530930 -13.185600 -22.291500 -0.000108 -0.000004 2.777930 5.256430 1.262320 -2.192480 -6.469440 -0.000000 -174.285000 -6.645420 0.796768 39.081100 -0.000007 -0.000012 0.038879 -0.125305 17.237800 40.985400 -0.000006 -0.000013 0.180640 11.438300 -69.590500 11.754300 -0.000000 0.000003 -0.001299 0.187191 -8.983070 -2.192510 6.469440 -0.000001 175.842000 5.638240 -177.383000 -39.081100 -0.002282 -0.040193 0.011174 -0.034585 12.771900 -40.985400 0.000008 0.000006 -7.055920 7.877040 -67.328300 -11.754300 -0.000006 -0.000006 -0.011558 0.282599 -5.088790
0.000000 0.000000 0.000000 0.000000 0.000000 -0.000000 0.759384 92.932000 0.697297 88.165200 -1.343510 2.668190 15.735700 0.000005 -0.000001 101.061000 86.779900 -99.910900 8.984550 -0.406207 -0.000000 -1.455870 1.142820 2.314260 16.377300 -0.000001 -0.000001 2.034610 2.885680 2.949730 6.456720 -0.000001 -0.000000 1.586090 4.229140 7.298880 12.994200 -0.242716 4.980390 -92.016400 5.906390 -71.112000 5.348090 -0.000007 -0.000001 -68.098700 -6.720730 -10.508100 24.328600 0.000019 0.000005 1.413600 21.995200 -3.769550 22.291600 -0.000001 0.000005 -8.191530 5.018430 6.925260 12.994500 -0.242716 -4.980390 89.006800 3.714640 -75.020100 -5.348130 -0.000001 -0.000004 -71.757000 25.457000 -4.806260 -24.328900 0.000322 -0.000009 0.251741 1.150350 -12.394400 -22.291500 -0.000108 -0.000004 2.811520 5.256020 1.273240 -2.192480 -6.469440 -0.000000 -174.207000 -7.073600 0.762050 39.081100 -0.000007 -0.000012 0.034567 -0.113456 16.944700 40.985400 -0.000006 -0.000013 0.111906 11.835900 -69.560900 11.754300 -0.000000 0.000003 -0.001315 0.187414 -8.974010 -2.192510 6.469440 -0.000001 175.956000 5.404400 -177.584000 -39.081100 -0.002282 -0.040193 0.014175 -0.047836 12.768900 -40.985400 0.000008 0.000006 -6.722120 7.566640 -67.527300 -11.754300 -0.000006 -0.000006 -0.011743 0.283897 -5.035630
